<svg viewBox="426.25 258.4721 380 331.0558" width="5000" height="4355.997368421052" xmlns="http://www.w3.org/2000/svg" xmlns:xlink="http://www.w3.org/1999/xlink" preserveAspectRatio="none"><defs></defs><style>.aD6z1nYkhstrokeColor-str {stroke:#76768E;stroke-opacity:1;}.aLgOaV3zRcolors-0 {fill:#FF7851;fill-opacity:1;}.aLgOaV3zRcolors-1 {fill:#FFB7A1;fill-opacity:1;}.aLgOaV3zRcolors-2 {fill:#76768E;fill-opacity:1;}.aLgOaV3zRcolors-3 {fill:#50505F;fill-opacity:1;}.aLgOaV3zRcolors-4 {fill:#34343F;fill-opacity:1;}.aLgOaV3zRcolors-5 {fill:#FB3D28;fill-opacity:1;}.aLgOaV3zRcolors-6 {fill:#FF9393;fill-opacity:1;}.aLgOaV3zRcolors-7 {fill:#9C9C9C;fill-opacity:1;}.ashadowgZ-LWhTuZP-floo {flood-color:#FB3D28;flood-opacity:1;}.companyName {fill:#FB3D28;fill-opacity:1;}.icon3-str {stroke:#76768E;stroke-opacity:1;}.text {fill:#FB3D28;fill-opacity:1;}</style><defs>
      <filter
        x="463.7642"
        y="566.0612"
        width="335.1056"
        height="23.4667"
        id="qrpW4v-NM"
        filterUnits="userSpaceOnUse"
        primitiveUnits="userSpaceOnUse"
        color-interpolation-filters="sRGB">
        <feMerge><feMergeNode in="SourceGraphic" /></feMerge>
      </filter></defs><g opacity="1" transform="rotate(0 463.7642 566.0612)">
<svg width="335.1056" height="23.4667" x="463.7642" y="566.0612" version="1.1" preserveAspectRatio="none" viewBox="0.12 -28 512.88 35.92">
  <g transform="matrix(1 0 0 1 0 0)" class="text"><path id="id-6izo4zJp24" d="M15.12-26.48L26.36 0L23.04 0L19.80-7.68L6.68-7.68L3.44 0L0.12 0L11.36-26.48L15.12-26.48ZM7.84-10.44L18.64-10.44L13.24-23.36L7.84-10.44Z M46.24-26.48L57.40-26.48Q59.76-26.48 61.96-25.58Q64.16-24.68 65.84-22.96L65.84-22.96Q69.56-19.16 69.56-13.24L69.56-13.24Q69.56-7.32 65.84-3.52L65.84-3.52Q64.16-1.80 61.96-0.90Q59.76 0 57.40 0L57.40 0L46.24 0L46.24-26.48ZM49.24-2.84L57.28-2.84Q61.44-2.84 64.04-5.92L64.04-5.92Q66.56-8.88 66.56-13.24L66.56-13.24Q66.56-17.60 64.04-20.56L64.04-20.56Q61.44-23.64 57.28-23.64L57.28-23.64L49.24-23.64L49.24-2.84Z M86.68-2.40L86.68-2.40Q90.72-2.40 92.48-5.76L92.48-5.76L95.76-5.76Q94.72-3.04 92.46-1.36Q90.20 0.32 86.64 0.32L86.64 0.32Q82.12 0.32 79.28-2.68L79.28-2.68Q76.52-5.60 76.52-10L76.52-10Q76.52-14.44 79.16-17.32L79.16-17.32Q81.96-20.32 86.44-20.32L86.44-20.32Q90.92-20.32 93.72-17.32L93.72-17.32Q96.36-14.44 96.36-10L96.36-10L96.36-8.80L79.60-8.80Q79.92-6.04 81.80-4.24L81.80-4.24Q83.72-2.40 86.68-2.40ZM86.44-17.60L86.44-17.60Q83.68-17.60 81.80-15.88L81.80-15.88Q80.04-14.24 79.64-11.60L79.64-11.60L93.24-11.60Q92.84-14.24 91.08-15.88L91.08-15.88Q89.20-17.60 86.44-17.60Z M113.28-2.40L113.28-2.40Q115.20-2.40 116.68-3.48Q118.16-4.56 118.84-6.28L118.84-6.28L122.08-6.28Q121.16-3.32 118.72-1.52L118.72-1.52Q116.16 0.32 112.64 0.32L112.64 0.32Q108.24 0.32 105.48-2.68L105.48-2.68Q102.80-5.60 102.80-10L102.80-10Q102.80-14.40 105.48-17.32L105.48-17.32Q108.24-20.32 112.64-20.32L112.64-20.32Q116.16-20.32 118.72-18.48L118.72-18.48Q121.16-16.68 122.08-13.72L122.08-13.72L118.84-13.72Q118.16-15.44 116.68-16.52Q115.20-17.60 113.28-17.60Q111.36-17.60 110.02-17Q108.68-16.40 107.76-15.36L107.76-15.36Q105.80-13.20 105.80-10L105.80-10Q105.80-6.80 107.76-4.64L107.76-4.64Q109.76-2.40 113.28-2.40Z M138.72-2.40L138.72-2.40Q142.76-2.40 144.52-5.76L144.52-5.76L147.80-5.76Q146.76-3.04 144.50-1.36Q142.24 0.32 138.68 0.32L138.68 0.32Q134.16 0.32 131.32-2.68L131.32-2.68Q128.56-5.60 128.56-10L128.56-10Q128.56-14.44 131.20-17.32L131.20-17.32Q134-20.32 138.48-20.32L138.48-20.32Q142.96-20.32 145.76-17.32L145.76-17.32Q148.40-14.44 148.40-10L148.40-10L148.40-8.80L131.64-8.80Q131.96-6.04 133.84-4.24L133.84-4.24Q135.76-2.40 138.72-2.40ZM138.48-17.60L138.48-17.60Q135.72-17.60 133.84-15.88L133.84-15.88Q132.08-14.24 131.68-11.60L131.68-11.60L145.28-11.60Q144.88-14.24 143.12-15.88L143.12-15.88Q141.24-17.60 138.48-17.60Z M156.08-20L159.08-20L159.08-16.88Q160.16-18.32 161.72-19.32Q163.28-20.32 165.28-20.32Q167.28-20.32 168.72-19.76Q170.16-19.20 171.24-18.08L171.24-18.08Q173.72-15.64 173.72-11.64L173.72-11.64L173.72 0L170.72 0L170.72-11.56Q170.72-14.32 169.16-15.96Q167.60-17.60 165.12-17.60L165.12-17.60Q162.60-17.60 160.84-15.92L160.84-15.92Q159.08-14.20 159.08-11.52L159.08-11.52L159.08 0L156.08 0L156.08-20Z M187.40 0L184.40 0L184.40-17.36L180.32-17.36L180.32-20L184.40-20L184.40-27.16L187.40-27.16L187.40-20L192-20L192-17.36L187.40-17.36L187.40 0Z M209.64-20.32L209.84-20.32L209.84-17.32L209.48-17.32Q206.24-17.32 204.20-14.72L204.20-14.72Q202.28-12.24 202.28-8.80L202.28-8.80L202.28 0L199.28 0L199.28-20L202.28-20L202.28-15.08Q203.24-18.20 206.44-19.68L206.44-19.68Q207.76-20.32 209.64-20.32L209.64-20.32Z M232.16 0L232.16-3.20Q229.76 0.32 225 0.32L225 0.32Q220.68 0.32 217.96-2.68L217.96-2.68Q215.32-5.64 215.32-10L215.32-10Q215.32-14.36 217.96-17.32L217.96-17.32Q220.68-20.32 225.20-20.32Q229.72-20.32 232.16-16.76L232.16-16.76L232.16-20L235.16-20L235.16 0L232.16 0ZM225.40-2.40L225.40-2.40Q228.64-2.40 230.52-4.64L230.52-4.64Q232.32-6.76 232.32-10L232.32-10Q232.32-13.24 230.52-15.36L230.52-15.36Q228.64-17.60 225.40-17.60L225.40-17.60Q222.20-17.60 220.20-15.36L220.20-15.36Q218.32-13.24 218.32-10L218.32-10Q218.32-6.76 220.20-4.64L220.20-4.64Q222.20-2.40 225.40-2.40Z M247.36-28L247.36 0L244.36 0L244.36-28L247.36-28Z M256.56 0L256.56-20L259.56-20L259.56 0L256.56 0ZM256.44-27.28L259.68-27.28L259.68-23.36L256.44-23.36L256.44-27.28Z M283.56-14.64L280.52-14.64Q280.12-17.76 275.50-17.76Q270.88-17.76 270.88-14.88L270.88-14.88Q270.88-13.68 271.86-13.06Q272.84-12.44 274.32-12.04Q275.80-11.64 277.54-11.30Q279.28-10.96 280.76-10.34Q282.24-9.72 283.22-8.64Q284.20-7.56 284.20-5.68L284.20-5.68Q284.20-2.76 282-1.22Q279.80 0.32 276.04 0.32L276.04 0.32Q272.04 0.32 269.68-1.68L269.68-1.68Q267.52-3.44 267.36-6.28L267.36-6.28L270.48-6.28Q270.76-3.52 273.60-2.56L273.60-2.56Q274.64-2.24 275.66-2.24Q276.68-2.24 277.56-2.36Q278.44-2.48 279.28-2.80L279.28-2.80Q281.20-3.56 281.20-5.40L281.20-5.40Q281.20-6.64 280.22-7.30Q279.24-7.96 277.76-8.38Q276.28-8.80 274.54-9.14Q272.80-9.48 271.32-10.08Q269.84-10.68 268.86-11.72Q267.88-12.76 267.88-14.60L267.88-14.60Q267.88-17.32 269.86-18.82Q271.84-20.32 275.72-20.32L275.72-20.32Q279.40-20.32 281.52-18.56L281.52-18.56Q283.28-17.08 283.56-14.64L283.56-14.64Z M300.96-2.40L300.96-2.40Q305.00-2.40 306.76-5.76L306.76-5.76L310.04-5.76Q309.00-3.04 306.74-1.36Q304.48 0.32 300.92 0.32L300.92 0.32Q296.40 0.32 293.56-2.68L293.56-2.68Q290.80-5.60 290.80-10L290.80-10Q290.80-14.44 293.44-17.32L293.44-17.32Q296.24-20.32 300.72-20.32L300.72-20.32Q305.20-20.32 308.00-17.32L308.00-17.32Q310.64-14.44 310.64-10L310.64-10L310.64-8.80L293.88-8.80Q294.20-6.04 296.08-4.24L296.08-4.24Q298.00-2.40 300.96-2.40ZM300.72-17.60L300.72-17.60Q297.96-17.60 296.08-15.88L296.08-15.88Q294.32-14.24 293.92-11.60L293.92-11.60L307.52-11.60Q307.12-14.24 305.36-15.88L305.36-15.88Q303.48-17.60 300.72-17.60Z M333.92 0L333.92-3.20Q331.52 0.32 326.76 0.32L326.76 0.32Q322.44 0.32 319.72-2.68L319.72-2.68Q317.08-5.64 317.08-10L317.08-10Q317.08-14.36 319.72-17.32L319.72-17.32Q322.44-20.32 326.96-20.32Q331.48-20.32 333.92-16.76L333.92-16.76L333.92-28L336.92-28L336.92 0L333.92 0ZM327.16-2.40L327.16-2.40Q330.40-2.40 332.28-4.64L332.28-4.64Q334.08-6.76 334.08-10L334.08-10Q334.08-13.24 332.28-15.36L332.28-15.36Q330.40-17.60 327.16-17.60L327.16-17.60Q323.96-17.60 321.96-15.36L321.96-15.36Q320.08-13.24 320.08-10L320.08-10Q320.08-6.76 321.96-4.64L321.96-4.64Q323.96-2.40 327.16-2.40Z M371.08-2.60L371.08-2.60Q373.92-2.60 376.06-4.04Q378.20-5.48 379.24-7.92L379.24-7.92L382.40-7.92Q381.08-4.16 378.04-2L378.04-2Q374.80 0.32 370.40 0.32L370.40 0.32Q364.60 0.32 361-3.64L361-3.64Q357.60-7.44 357.60-13.24Q357.60-19.04 361-22.84L361-22.84Q364.60-26.80 370.40-26.80L370.40-26.80Q374.80-26.80 378.04-24.48L378.04-24.48Q381.08-22.32 382.40-18.56L382.40-18.56L379.24-18.56Q378.20-21 376.06-22.44Q373.92-23.88 371.08-23.88Q368.24-23.88 366.36-23.06Q364.48-22.24 363.20-20.80L363.20-20.80Q360.60-17.88 360.60-13.24L360.60-13.24Q360.60-8.60 363.20-5.68L363.20-5.68Q365.92-2.60 371.08-2.60Z M390.24-28L393.24-28L393.24-16.88Q394.32-18.32 395.88-19.32Q397.44-20.32 399.44-20.32Q401.44-20.32 402.88-19.76Q404.32-19.20 405.40-18.08L405.40-18.08Q407.88-15.64 407.88-11.64L407.88-11.64L407.88 0L404.88 0L404.88-11.56Q404.88-14.32 403.32-15.96Q401.76-17.60 399.28-17.60L399.28-17.60Q396.76-17.60 395.00-15.92L395.00-15.92Q393.24-14.20 393.24-11.52L393.24-11.52L393.24 0L390.24 0L390.24-28Z M432.48 0L432.48-3.20Q430.08 0.32 425.32 0.32L425.32 0.32Q421.00 0.32 418.28-2.68L418.28-2.68Q415.64-5.64 415.64-10L415.64-10Q415.64-14.36 418.28-17.32L418.28-17.32Q421.00-20.32 425.52-20.32Q430.04-20.32 432.48-16.76L432.48-16.76L432.48-20L435.48-20L435.48 0L432.48 0ZM425.72-2.40L425.72-2.40Q428.96-2.40 430.84-4.64L430.84-4.64Q432.64-6.76 432.64-10L432.64-10Q432.64-13.24 430.84-15.36L430.84-15.36Q428.96-17.60 425.72-17.60L425.72-17.60Q422.52-17.60 420.52-15.36L420.52-15.36Q418.64-13.24 418.64-10L418.64-10Q418.64-6.76 420.52-4.64L420.52-4.64Q422.52-2.40 425.72-2.40Z M455.04-20.32L455.24-20.32L455.24-17.32L454.88-17.32Q451.64-17.32 449.60-14.72L449.60-14.72Q447.68-12.24 447.68-8.80L447.68-8.80L447.68 0L444.68 0L444.68-20L447.68-20L447.68-15.08Q448.64-18.20 451.84-19.68L451.84-19.68Q453.16-20.32 455.04-20.32L455.04-20.32Z M462.48 0L462.48-20L465.48-20L465.48 0L462.48 0ZM462.36-27.28L465.60-27.28L465.60-23.36L462.36-23.36L462.36-27.28Z M479.84 0L476.84 0L476.84-17.36L472.76-17.36L472.76-20L476.84-20L476.84-27.16L479.84-27.16L479.84-20L484.44-20L484.44-17.36L479.84-17.36L479.84 0Z M508.88-20L497.04 7.92L493.80 7.92L497.44-0.28L489.28-20L492.60-20L499.04-3.60L505.60-20L508.88-20Z"/></g>
</svg>
</g><g opacity="1" transform="rotate(0 426.25 490.9675)">
<svg width="380" height="52.1484" x="426.25" y="490.9675" version="1.1" preserveAspectRatio="none" viewBox="1.4 -33.2 244.84 33.60000000000001">
  <g transform="matrix(1 0 0 1 0 0)" class="companyName"><path id="id-D6z1nYkh9" d="M18.08 0L1.40 0L1.40-1.60Q2.72-1.64 3.54-1.82Q4.36-2 4.82-2.50Q5.28-3 5.44-3.86Q5.60-4.72 5.60-6.16L5.60-6.16L5.60-24.64Q5.60-26.04 5.48-26.90Q5.36-27.76 4.96-28.26Q4.56-28.76 3.86-28.94Q3.16-29.12 2.04-29.20L2.04-29.20L2.04-30.80L17.24-30.80Q21.08-30.80 24.32-29.60Q27.56-28.40 29.92-26.28Q32.28-24.16 33.60-21.24Q34.92-18.32 34.92-14.88L34.92-14.88Q34.92-11.60 33.68-8.86Q32.44-6.12 30.22-4.16Q28-2.20 24.90-1.10Q21.80 0 18.08 0L18.08 0ZM17.16-28.36L12.16-28.36Q11.48-28.36 11.48-27.68L11.48-27.68L11.48-7Q11.48-4.68 12.92-3.56Q14.36-2.44 17.36-2.44L17.36-2.44Q22.60-2.44 25.42-5.60Q28.24-8.76 28.24-14.80L28.24-14.80Q28.24-18 27.48-20.52Q26.72-23.04 25.28-24.78Q23.84-26.52 21.78-27.44Q19.72-28.36 17.16-28.36L17.16-28.36Z M59.24-5.12L60.36-3.72Q56.72 0.40 51.28 0.40L51.28 0.40Q48.80 0.40 46.78-0.38Q44.76-1.16 43.32-2.58Q41.88-4 41.08-5.96Q40.28-7.92 40.28-10.32L40.28-10.32Q40.28-12.80 41.12-14.86Q41.96-16.92 43.50-18.42Q45.04-19.92 47.14-20.76Q49.24-21.60 51.76-21.60L51.76-21.60Q56-21.60 58.36-19.32Q60.72-17.04 60.72-12.92L60.72-12.92Q60.72-12.28 60.52-12.14Q60.32-12 59.40-12L59.40-12L46.52-12Q46.36-11.64 46.36-10.68L46.36-10.68Q46.36-6.76 48.06-4.48Q49.76-2.20 52.68-2.20L52.68-2.20Q54.36-2.20 56.02-2.96Q57.68-3.72 59.24-5.12L59.24-5.12ZM46.80-14.24L52.60-14.24Q54.20-14.24 54.66-14.42Q55.12-14.60 55.12-15.28L55.12-15.28Q55.12-17.04 54.12-18.16Q53.12-19.28 51.60-19.28L51.60-19.28Q49.88-19.28 48.54-17.86Q47.20-16.44 46.80-14.24L46.80-14.24Z M96.04 0.40L90.68 0.40L72.96-24.84L72.80-24.84L72.80-7.64Q72.80-5.64 72.94-4.48Q73.08-3.32 73.54-2.68Q74-2.04 74.82-1.84Q75.64-1.64 76.96-1.60L76.96-1.60L76.96 0L65.08 0L65.08-1.60Q66.56-1.64 67.46-1.86Q68.36-2.08 68.86-2.68Q69.36-3.28 69.52-4.38Q69.68-5.48 69.68-7.36L69.68-7.36L69.68-23.44Q69.68-25.12 69.52-26.22Q69.36-27.32 68.92-27.96Q68.48-28.60 67.66-28.86Q66.84-29.12 65.48-29.20L65.48-29.20L65.48-30.80L76.64-30.80L92.76-7.68L92.92-7.68L92.92-23.16Q92.92-25.12 92.78-26.30Q92.64-27.48 92.18-28.12Q91.72-28.76 90.90-28.96Q90.08-29.16 88.76-29.20L88.76-29.20L88.76-30.80L100.64-30.80L100.64-29.20Q99.16-29.16 98.26-28.94Q97.36-28.72 96.86-28.12Q96.36-27.52 96.20-26.40Q96.04-25.28 96.04-23.44L96.04-23.44L96.04 0.40Z M113.20-21.60L113.20-6.56Q113.20-4.96 113.32-4Q113.44-3.04 113.80-2.52Q114.16-2 114.84-1.82Q115.52-1.64 116.68-1.60L116.68-1.60L116.68 0L104.08 0L104.08-1.60Q105.20-1.64 105.90-1.86Q106.60-2.08 106.98-2.58Q107.36-3.08 107.50-3.98Q107.64-4.88 107.64-6.28L107.64-6.28L107.64-11.20Q107.64-13.52 107.56-15.02Q107.48-16.52 107.36-17.08L107.36-17.08Q107.16-18.08 106.46-18.40Q105.76-18.72 103.92-18.72L103.92-18.72L103.92-20.08L113.20-21.60ZM107.32-30.08L107.32-30.08Q107.32-31.40 108.22-32.30Q109.12-33.20 110.40-33.20L110.40-33.20Q111.72-33.20 112.62-32.30Q113.52-31.40 113.52-30.08L113.52-30.08Q113.52-28.80 112.62-27.90Q111.72-27 110.40-27L110.40-27Q109.12-27 108.22-27.90Q107.32-28.80 107.32-30.08Z M129.68-8.12L129.68-6.20Q129.68-4.64 129.82-3.74Q129.96-2.84 130.40-2.36Q130.84-1.88 131.68-1.74Q132.52-1.60 133.92-1.60L133.92-1.60L133.92 0L120.56 0L120.56-1.60Q121.76-1.68 122.48-1.84Q123.20-2 123.56-2.48Q123.92-2.96 124.02-3.86Q124.12-4.76 124.12-6.28L124.12-6.28L124.12-11.16Q124.12-13.64 124.00-15.12Q123.88-16.60 123.48-17.40Q123.08-18.20 122.34-18.46Q121.60-18.72 120.40-18.72L120.40-18.72L120.40-20.12L128.40-21.60L129.04-17L129.20-17Q130.28-19.12 132.04-20.36Q133.80-21.60 135.76-21.60L135.76-21.60Q137.28-21.60 138.24-20.84Q139.20-20.08 139.20-18.92L139.20-18.92Q139.20-17.64 138.46-16.76Q137.72-15.88 136.44-15.88L136.44-15.88Q135.84-15.88 135.36-16.12Q134.88-16.36 134.50-16.66Q134.12-16.96 133.74-17.22Q133.36-17.48 132.96-17.48L132.96-17.48Q132.20-17.48 131.52-16.48Q130.84-15.48 130.40-13.80L130.40-13.80Q130.08-12.60 129.88-11.10Q129.68-9.60 129.68-8.12L129.68-8.12Z M151.64 0.40L145.32-16.04Q144.88-17.20 144.48-17.90Q144.08-18.60 143.66-18.98Q143.24-19.36 142.74-19.48Q142.24-19.60 141.56-19.60L141.56-19.60L141.56-21.20L153.52-21.20L153.52-19.60Q152.52-19.60 151.94-19.52Q151.36-19.44 151.06-19.28Q150.76-19.12 150.68-18.86Q150.60-18.60 150.60-18.28L150.60-18.28Q150.60-17.76 150.80-17.08Q151.00-16.40 151.28-15.72L151.28-15.72L155.08-5.24L155.24-5.24L159.52-15.68Q159.80-16.36 159.96-16.90Q160.12-17.44 160.12-17.88L160.12-17.88Q160.12-18.76 159.52-19.16Q158.92-19.56 157.40-19.60L157.40-19.60L157.40-21.20L166.24-21.20L166.24-19.60Q165.16-19.60 164.38-19.04Q163.60-18.48 162.76-16.56L162.76-16.56L155.28 0.40L151.64 0.40Z M181.48-7.60L181.48-11.40Q178.12-9.88 176.42-8.58Q174.72-7.28 174.72-5.88L174.72-5.88Q174.72-4.72 175.36-4.04Q176.00-3.36 176.96-3.36L176.96-3.36Q177.92-3.36 178.76-3.70Q179.60-4.04 180.20-4.60Q180.80-5.16 181.14-5.94Q181.48-6.72 181.48-7.60L181.48-7.60ZM175.84-11.08L181.48-13.52L181.48-15.20Q181.48-17.52 180.66-18.58Q179.84-19.64 178.12-19.64L178.12-19.64Q176.96-19.64 176.36-19.02Q175.76-18.40 175.24-16.96L175.24-16.96Q174.88-15.96 174.22-15.40Q173.56-14.84 172.40-14.84L172.40-14.84Q171.28-14.84 170.68-15.52Q170.08-16.20 170.08-17.44L170.08-17.44Q170.08-19.36 172.18-20.48Q174.28-21.60 178.52-21.60L178.52-21.60Q183.00-21.60 184.92-19.98Q186.84-18.36 186.84-14.56L186.84-14.56L186.84-5.80Q186.84-2.40 188.20-2.40L188.20-2.40Q188.96-2.40 189.60-2.92L189.60-2.92L190.20-1.76Q189.64-0.76 188.46-0.18Q187.28 0.40 185.80 0.40L185.80 0.40Q183.96 0.40 183.00-0.72Q182.04-1.84 182.04-3.88L182.04-3.88L181.84-3.88Q180.68-1.80 178.84-0.72Q177.00 0.36 174.64 0.36L174.64 0.36Q172.12 0.36 170.60-1.06Q169.08-2.48 169.08-4.76L169.08-4.76Q169.08-6.52 170.64-8.06Q172.20-9.60 175.84-11.08L175.84-11.08Z M202.96-12.04L202.96-6.52Q202.96-4.88 203.06-3.94Q203.16-3 203.50-2.50Q203.84-2 204.54-1.84Q205.24-1.68 206.44-1.60L206.44-1.60L206.44 0L193.84 0L193.84-1.60Q195.00-1.68 195.70-1.84Q196.40-2 196.78-2.48Q197.16-2.96 197.28-3.84Q197.40-4.72 197.40-6.24L197.40-6.24L197.40-11.24Q197.40-13.60 197.32-15.06Q197.24-16.52 197.12-17.04L197.12-17.04Q197.00-17.56 196.80-17.90Q196.60-18.24 196.20-18.42Q195.80-18.60 195.20-18.66Q194.60-18.72 193.68-18.72L193.68-18.72L193.68-20.08L201.40-21.60L201.92-18.08L202.08-18.08Q203.40-19.76 205.20-20.68Q207.00-21.60 209.16-21.60L209.16-21.60Q211.72-21.60 213.30-20.90Q214.88-20.20 216.12-18.56L216.12-18.56Q216.80-17.64 217.32-16.18Q217.84-14.72 217.84-12.16L217.84-12.16L217.84-6.52Q217.84-4.88 217.94-3.94Q218.04-3 218.38-2.50Q218.72-2 219.40-1.84Q220.08-1.68 221.24-1.60L221.24-1.60L221.24 0L208.72 0L208.72-1.60Q209.92-1.64 210.62-1.82Q211.32-2 211.68-2.48Q212.04-2.96 212.16-3.86Q212.28-4.76 212.28-6.24L212.28-6.24L212.28-11.68Q212.28-13.72 212.04-15.12Q211.80-16.52 211.26-17.38Q210.72-18.24 209.84-18.62Q208.96-19 207.64-19L207.64-19Q206.36-19 205.44-18.28Q204.52-17.56 203.84-16.28L203.84-16.28Q203.48-15.56 203.22-14.42Q202.96-13.28 202.96-12.04L202.96-12.04Z M237.52-7.60L237.52-11.40Q234.16-9.88 232.46-8.58Q230.76-7.28 230.76-5.88L230.76-5.88Q230.76-4.72 231.40-4.04Q232.04-3.36 233-3.36L233-3.36Q233.96-3.36 234.80-3.70Q235.64-4.04 236.24-4.60Q236.84-5.16 237.18-5.94Q237.52-6.72 237.52-7.60L237.52-7.60ZM231.88-11.08L237.52-13.52L237.52-15.20Q237.52-17.52 236.70-18.58Q235.88-19.64 234.16-19.64L234.16-19.64Q233-19.64 232.40-19.02Q231.80-18.40 231.28-16.96L231.28-16.96Q230.92-15.96 230.26-15.40Q229.60-14.84 228.44-14.84L228.44-14.84Q227.32-14.84 226.72-15.52Q226.12-16.20 226.12-17.44L226.12-17.44Q226.12-19.36 228.22-20.48Q230.32-21.60 234.56-21.60L234.56-21.60Q239.04-21.60 240.96-19.98Q242.88-18.36 242.88-14.56L242.88-14.56L242.88-5.80Q242.88-2.40 244.24-2.40L244.24-2.40Q245-2.40 245.64-2.92L245.64-2.92L246.24-1.76Q245.68-0.76 244.50-0.18Q243.32 0.40 241.84 0.40L241.84 0.40Q240 0.40 239.04-0.72Q238.08-1.84 238.08-3.88L238.08-3.88L237.88-3.88Q236.72-1.80 234.88-0.72Q233.04 0.36 230.68 0.36L230.68 0.36Q228.16 0.36 226.64-1.06Q225.12-2.48 225.12-4.76L225.12-4.76Q225.12-6.52 226.68-8.06Q228.24-9.60 231.88-11.08L231.88-11.08Z"/></g>
</svg>
</g><g opacity="1" transform="rotate(0 521.2501 258.4721)">
<svg width="189.9998" height="201.2064" x="521.2501" y="258.4721" version="1.1" preserveAspectRatio="none" viewBox="1.0749739408493042 0.9881965517997742 2.851337194442749 3.0195116996765137">
  <g transform="matrix(1 0 0 1 0 0)" class="aLgOaV3zRcolors-0"><title>abstract</title><path d="M2.50205,1.57648a.225.225,0,0,1,.02581-.04986,2.25545,2.25545,0,0,1,.417-.3854.76836.76836,0,0,1,.71233-.08645.38011.38011,0,0,1,.26046.44393,2.48012,2.48012,0,0,1-.39287.95222c-.21307.326-.4397.64318-.65415.96834-.09958.151-.18852.3095-.27449.46881a.19556.19556,0,0,1-.33891.03836c-.12113-.165-.2343-.33607-.34489-.50838-.175-.27267-.34971-.54573-.51562-.82395a2.423,2.423,0,0,1-.29411-.682.87424.87424,0,0,1,.07386-.62692A.53752.53752,0,0,1,1.89333,1.043a1.34508,1.34508,0,0,1,.50012.40511c.03115.03675.059.07633.08832.1146Zm-.84769-.25128a.201.201,0,0,0-.188.121.56825.56825,0,0,0-.04909.37272,1.66678,1.66678,0,0,0,.17567.45387c.22725.43145.50824.82985.76994,1.24011.02406.03772.03971.02742.06114-.0041q.29306-.43107.58833-.86062a3.81657,3.81657,0,0,0,.49421-.86191,2.7228,2.7228,0,0,0,.08552-.30481c.01859-.08033-.002-.10957-.07872-.12845a.44432.44432,0,0,0-.36306.04872,1.77278,1.77278,0,0,0-.45722.44935c-.04087.05486-.06737.12064-.10949.17432a.156.156,0,0,1-.25724-.0131,1.48941,1.48941,0,0,1-.07683-.15769A1.022,1.022,0,0,0,2.183,1.71991a1.216,1.216,0,0,0-.32275-.32181A.373.373,0,0,0,1.65436,1.32519Z"></path></g>
</svg>
</g></svg>